<svg viewBox="0 0 25 13" fill="#0da487" xmlns="http://www.w3.org/2000/svg">
    <path
        d="M15.1972 0.0528564H9.80241C4.88313 0.0528564 0.881104 4.05483 0.881104 8.97417V9.37414C0.881104 11.3446 2.48435 12.9474 4.45437 12.9474H20.5458C22.5158 12.9474 24.119 11.3444 24.119 9.37414V8.97417C24.119 4.05488 20.1169 0.0528564 15.1972 0.0528564H15.1972ZM23.2217 9.37381C23.2217 10.8495 22.0213 12.0498 20.5457 12.0498H4.45426C2.97859 12.0498 1.77825 10.8495 1.77825 9.37381V8.97385C1.77825 5.07345 4.57672 1.81793 8.27009 1.10043V2.95503C8.27009 3.20293 8.47072 3.40377 8.71883 3.40377C8.96674 3.40377 9.16757 3.20314 9.16757 2.95503V0.982232C9.37778 0.96562 9.58819 0.94986 9.80247 0.94986H11.8596V2.95499C11.8596 3.20289 12.0602 3.40373 12.3083 3.40373C12.5562 3.40373 12.757 3.2031 12.757 2.95499V0.94986H15.1979C15.2827 0.94986 15.3649 0.95987 15.4488 0.962426V2.95501C15.4488 3.20292 15.6495 3.40375 15.8976 3.40375C16.1455 3.40375 16.3463 3.20313 16.3463 2.95501V1.04165C20.2265 1.60196 23.222 4.94057 23.222 8.97394L23.2217 9.37381Z" />
    <path
        d="M18.5657 10.582H13.1821C12.9342 10.582 12.7334 10.7826 12.7334 11.0307C12.7334 11.2786 12.934 11.4795 13.1821 11.4795H18.5657C18.8136 11.4795 19.0144 11.2789 19.0144 11.0307C19.0144 10.7826 18.8138 10.582 18.5657 10.582Z" />
</svg>