<svg viewBox="0 0 19 21" fill="#0da487" xmlns="http://www.w3.org/2000/svg">
    <path
        d="M0.397356 13.4305C0.459753 13.2227 0.667509 13.0979 0.875286 13.1603L2.55877 13.6175L4.22136 12.7032L2.18476 11.5187C1.99774 11.4148 1.93534 11.1861 2.03922 10.9991C2.1431 10.8121 2.37177 10.7497 2.55879 10.8536L4.99035 12.2667L8.75196 10.1885L5.21885 7.79858L2.82894 9.19098C2.76654 9.23247 2.70432 9.25338 2.64192 9.25338C2.5173 9.25338 2.39251 9.19098 2.30937 9.06636C2.20549 8.87935 2.26789 8.65067 2.45491 8.54679L4.53316 7.34137L2.89132 6.23982L1.06245 6.75939C1.02097 6.75939 1.00006 6.78014 0.958576 6.78014C0.792299 6.78014 0.646763 6.67625 0.584541 6.50998C0.522144 6.30222 0.646942 6.09429 0.854696 6.03205L2.06012 5.6995L1.06266 5.03441C0.896379 4.90979 0.833986 4.68112 0.958776 4.49413C1.0834 4.32785 1.31207 4.26546 1.49907 4.39025L2.37194 4.97222L2.12253 3.91236C2.08105 3.7046 2.20566 3.49667 2.41342 3.45519C2.62118 3.4137 2.82911 3.53832 2.87059 3.74608L3.30702 5.61642L4.88646 6.67628L5.03199 4.3486C5.05274 4.14084 5.21901 3.97456 5.42677 3.9953C5.63453 4.01605 5.8008 4.18232 5.78006 4.39008L5.61379 7.17494L9.10507 9.50262V4.86814L6.69441 3.35111C6.50739 3.24723 6.46574 2.99781 6.56979 2.83153C6.67367 2.64451 6.92308 2.60286 7.08936 2.70691L9.10526 3.9538V2.31197L7.67134 1.02343C7.50506 0.877897 7.50506 0.649398 7.65059 0.483143C7.79613 0.316866 8.02463 0.316866 8.19088 0.462401L9.10523 1.29359L9.10506 0.753301C9.10506 0.545541 9.27133 0.379269 9.47909 0.379269C9.68685 0.379269 9.85312 0.545546 9.85312 0.753301V1.29359L10.7467 0.483114C10.9132 0.316837 11.1626 0.337751 11.3079 0.483114C11.4535 0.628647 11.4325 0.877889 11.2872 1.0234L9.87402 2.31194V3.95377L12.0145 2.68613C12.2015 2.58225 12.4302 2.64464 12.5341 2.81075C12.638 2.99776 12.5756 3.22644 12.4095 3.33032L9.87403 4.82664V9.56512L13.1785 7.73626L12.9707 5.0138C12.95 4.80604 13.1162 4.61903 13.324 4.59811C13.5318 4.57737 13.7188 4.74365 13.7397 4.95141L13.906 7.32056L15.7972 6.28141L16.3792 4.49419C16.4416 4.28643 16.6701 4.18238 16.8571 4.24478C17.0649 4.30717 17.169 4.53567 17.1066 4.7227L16.774 5.7411L17.5845 5.30467C17.7715 5.20079 18.0002 5.26318 18.1041 5.4502C18.2079 5.63722 18.1455 5.86589 17.9585 5.96978L17.1688 6.40621L18.4363 6.71784C18.6442 6.7595 18.7688 6.96726 18.7066 7.17502C18.6651 7.34129 18.4988 7.46591 18.3326 7.46591H18.2494L16.1712 6.98798L14.3216 8.00638L16.3167 9.23251C16.5038 9.33639 16.5454 9.5858 16.4414 9.75208C16.379 9.8767 16.2336 9.9391 16.1088 9.9391C16.0464 9.9391 15.9633 9.91836 15.901 9.8767L13.5319 8.4219L10.2275 10.2508L13.1369 12.2043L15.7348 10.8951C15.9218 10.7913 16.1505 10.8744 16.2543 11.0614C16.3582 11.2484 16.2751 11.4771 16.0881 11.581L13.8852 12.6825L15.9011 14.0333L17.9793 13.6593C18.1871 13.6178 18.395 13.7631 18.4158 13.9711C18.4573 14.1788 18.3119 14.3868 18.104 14.4075L16.8154 14.6362L17.709 15.2389C17.8753 15.3635 17.9377 15.5922 17.8129 15.7792C17.7298 15.883 17.6259 15.9454 17.5011 15.9454C17.4179 15.9454 17.3555 15.9247 17.2933 15.883L16.4828 15.3427L16.8569 16.6313C16.9193 16.839 16.7945 17.047 16.5867 17.1092C16.5452 17.1092 16.5243 17.13 16.4828 17.13C16.3166 17.13 16.171 17.0261 16.1088 16.8598L15.4854 14.6984L13.5526 13.4099L13.7396 15.8829C13.7604 16.0906 13.5941 16.2777 13.3864 16.2986H13.3656C13.1579 16.2986 12.9916 16.153 12.9916 15.9453L12.7629 12.8695L9.87418 10.9159V15.2801L12.3889 16.5687C12.5759 16.6726 12.6591 16.9012 12.5552 17.0883C12.4513 17.2753 12.2226 17.3584 12.0356 17.2545L9.87419 16.153V18.0233L11.4744 19.8314C11.6199 19.9977 11.599 20.2262 11.4329 20.3717C11.2666 20.5172 11.0381 20.4963 10.8926 20.3302L9.87422 19.1665V20.268C9.87422 20.4758 9.70794 20.642 9.50019 20.642C9.29243 20.642 9.12615 20.4758 9.12615 20.268V19.2081L8.17016 20.3304C8.08703 20.4135 7.98315 20.455 7.87927 20.455C7.79613 20.455 7.71299 20.4343 7.62985 20.3719C7.46358 20.2264 7.44284 19.9979 7.58837 19.8316L9.12634 18.0235V16.2154L7.08973 17.2545C7.02733 17.2753 6.96511 17.296 6.92345 17.296C6.77792 17.296 6.6533 17.2129 6.5909 17.0883C6.48702 16.9012 6.57016 16.6726 6.75718 16.5687L9.14709 15.3633L9.14692 10.8745L5.42696 12.9318L5.55158 15.7167C5.55158 15.9245 5.40604 16.1115 5.17755 16.1115H5.15681C4.94905 16.1115 4.78277 15.9452 4.78277 15.7374L4.67889 13.3268L2.97483 14.262L2.45526 16.2779C2.41377 16.4442 2.24749 16.5688 2.08122 16.5688C2.06048 16.5688 2.01882 16.5688 1.97734 16.548C1.76958 16.4857 1.64479 16.2779 1.70719 16.0909L2.01849 14.7814L1.22877 15.2178C1.16637 15.2593 1.10415 15.2593 1.04175 15.2593C0.917135 15.2593 0.771601 15.1969 0.709204 15.0723C0.605324 14.8853 0.667721 14.6566 0.854736 14.5527L1.60298 14.137L0.667751 13.8876C0.459993 13.8461 0.335199 13.6384 0.397598 13.4306L0.397356 13.4305Z" />
</svg>