<svg viewBox="0 0 23 21" fill="#0da487" xmlns="http://www.w3.org/2000/svg">
    <path
        d="M19.1165 4.87284C15.647 1.78393 11.7545 0.176178 7.60771 0.176178H6.93069C5.36514 0.260834 4.22266 0.895398 3.46119 1.82636C1.81101 2.75732 0.837788 4.57664 0.964672 6.56522C1.09156 8.5538 2.27629 10.1618 4.13798 10.8811C5.23803 11.3041 6.16904 11.7274 6.76138 12.4888C7.4384 13.3351 8.03074 14.5621 8.45382 16.1276C9.17304 18.4971 11.1194 20.2742 13.5313 20.655C13.9121 20.6972 14.2505 20.7396 14.5891 20.7396C16.5777 20.7396 18.3973 19.8087 19.582 18.1162L19.7088 17.9469C20.1319 17.3546 20.4705 16.6776 20.7242 16.0006C22.967 12.5313 22.3322 7.74993 19.1165 4.87259L19.1165 4.87284ZM7.01532 1.06471H7.64991C11.5849 1.06471 15.2664 2.58807 18.5663 5.54986C21.5281 8.21546 22.1204 12.6586 19.8779 15.8739L19.751 16.0007C18.7778 17.3548 17.2545 18.1586 15.5621 18.1586C13.5735 18.1586 11.2038 16.9739 10.4 14.3505C9.93449 12.7427 9.29993 11.4734 8.58048 10.5849C7.86126 9.69632 6.80342 9.23081 5.66089 8.80779C3.41831 7.96145 2.9106 5.93067 3.16437 4.44952C3.24903 3.81493 3.54521 3.13791 4.01071 2.54557C4.01071 2.54557 4.01071 2.50335 4.05292 2.50335C4.68792 1.69905 5.66113 1.10665 7.01518 1.06445L7.01532 1.06471ZM13.7003 19.8938C11.5846 19.5554 9.8922 18.032 9.29987 15.9588C8.79216 14.3087 8.19982 12.9546 7.43811 12.0239C6.71889 11.0929 5.61862 10.6276 4.47632 10.1621C2.91077 9.52753 1.9376 8.25817 1.85292 6.56556C1.8107 5.6346 2.02223 4.7885 2.44526 4.02685C2.44526 4.11151 2.40304 4.15372 2.40304 4.23837C2.06464 6.14232 2.91074 8.55421 5.40726 9.52737C6.46511 9.95042 7.39584 10.3313 7.94598 11.0507C8.623 11.8546 9.17314 13.0393 9.59616 14.5627C10.3998 17.1861 12.8117 18.9631 15.5618 18.9631C16.6197 18.9631 17.5929 18.7092 18.4814 18.2015C17.2543 19.5977 15.5194 20.1901 13.7001 19.8939L13.7003 19.8938Z" />
    <path
        d="M6.08434 7.7073C7.3115 8.17279 8.58085 8.72272 9.42696 9.82299C10.2309 10.8384 10.9078 12.2349 11.4155 13.9695C12.0501 16.0852 13.9121 17.0159 15.5198 17.0159C16.2815 17.0159 17.7624 16.8044 18.8202 15.3235L18.9049 15.1966C20.8088 12.4463 20.3436 8.59625 17.7624 6.3113C14.6313 3.51859 11.2038 2.12234 7.56535 2.12234H6.97301C5.23815 2.207 4.39204 3.47639 4.22273 4.53423C4.09586 5.63428 4.47669 7.07278 6.08448 7.70754L6.08434 7.7073ZM5.11112 4.70308C5.19578 4.32224 5.49196 3.05289 7.0575 2.96821H7.60764C11.0349 2.96821 14.2927 4.32225 17.2546 6.94565C19.4972 8.97672 19.9202 12.2769 18.27 14.7314L18.1854 14.8583C17.3391 16.0007 16.1968 16.2123 15.6044 16.2123C14.3351 16.2123 12.8117 15.4507 12.304 13.7582C11.7538 11.8965 11.0346 10.4156 10.1461 9.31556C9.13068 8.0462 7.77664 7.45381 6.42265 6.9461C4.98398 6.35353 5.06861 5.08418 5.11087 4.70329L5.11112 4.70308Z" />
    <path
        d="M15.6891 14.5621C16.9163 14.5621 17.9317 13.5467 17.9317 12.3196C17.9317 11.0924 16.9163 10.077 15.6891 10.077C14.462 10.077 13.4465 11.0924 13.4465 12.3196C13.4465 13.5465 14.4622 14.5621 15.6891 14.5621ZM15.6891 10.9233C16.4508 10.9233 17.0853 11.5579 17.0853 12.3196C17.0853 13.0812 16.4508 13.7158 15.6891 13.7158C14.9275 13.7158 14.2929 13.0812 14.2929 12.3196C14.2929 11.5579 14.9275 10.9233 15.6891 10.9233Z" />
</svg>