<svg viewBox="0 0 19 29" fill="#0da487" xmlns="http://www.w3.org/2000/svg">
    <path fill-rule="evenodd" clip-rule="evenodd"
        d="M18.1166 28.0399H0.883984C0.657496 28.0399 0.473665 27.856 0.473665 27.6295V9.59698C0.470984 9.54405 0.478579 9.48932 0.498458 9.43594C0.504712 9.41852 0.512307 9.40176 0.520794 9.38568L2.93554 4.55613V1.37052C2.93554 1.14381 3.11914 0.960205 3.34586 0.960205H15.6546C15.8813 0.960205 16.0649 1.14381 16.0649 1.37052V4.55613L18.4835 9.39306C18.5119 9.45001 18.5268 9.51278 18.5268 9.57644V27.6296C18.5268 27.8561 18.343 28.0399 18.1165 28.0399L18.1166 28.0399ZM3.75618 1.78069V4.24238H15.2444V1.78069H3.75618ZM12.9394 9.16617L14.991 5.06321H3.59944L1.54785 9.16617H12.9394ZM15.6548 5.57047L13.6035 9.67342V27.2194H17.7064V9.67342L15.6548 5.57047ZM1.29443 9.98677V27.2194H12.7826V9.98677H1.29443ZM3.75612 12.859H10.3211C10.5478 12.859 10.7314 13.0426 10.7314 13.2693V17.3722C10.7314 17.5987 10.5478 17.7826 10.3211 17.7826H3.75612C3.52963 17.7826 3.34602 17.5987 3.34602 17.3722V13.2693C3.34602 13.0426 3.52963 12.859 3.75612 12.859ZM4.16644 13.6796V16.9619H9.91083V13.6796H4.16644ZM3.75612 21.0651C3.52963 21.0651 3.34602 20.8815 3.34602 20.6548C3.34602 20.4283 3.52963 20.2445 3.75612 20.2445H10.3211C10.5478 20.2445 10.7314 20.4283 10.7314 20.6548C10.7314 20.8815 10.5478 21.0651 10.3211 21.0651H3.75612ZM5.39738 24.3474C5.1709 24.3474 4.98706 24.1638 4.98706 23.9373C4.98706 23.7106 5.17089 23.527 5.39738 23.527H8.6799C8.90639 23.527 9.09 23.7106 9.09 23.9373C9.09 24.1638 8.9064 24.3474 8.6799 24.3474H5.39738Z" />
</svg>