<svg viewBox="0 0 28 20" fill="#0da487" xmlns="http://www.w3.org/2000/svg">
    <path
        d="M26.5564 14.6838H25.7779L23.5737 4.76566C23.5464 4.64523 23.4731 4.54201 23.3682 4.47869C23.264 4.41441 23.1383 4.39458 23.0188 4.42517C22.464 4.56734 21.8547 4.70139 21.0807 4.85145L19.0184 3.47989L19.0181 2.58099C19.0181 2.33106 18.8153 2.12843 18.5656 2.12843H15.3283L14.3207 1.11913C14.1441 0.942546 13.8571 0.942546 13.6805 1.11913L12.6719 2.1277H10.5761C10.4557 2.1277 10.3408 2.17573 10.2557 2.25984L9.24736 3.26915H8.29323C8.1728 3.26915 8.05787 3.31718 7.9728 3.40129L6.59574 4.77835C6.04712 4.67346 5.50208 4.55924 4.98262 4.42447C4.86315 4.39341 4.73722 4.41348 4.63208 4.4768C4.52719 4.54108 4.45287 4.64526 4.42564 4.76473L2.22229 14.6841H1.44377C1.19384 14.6841 0.991211 14.887 0.991211 15.1366V18.5605C0.991211 18.8105 1.19408 19.0131 1.44377 19.0131H26.5566C26.8065 19.0131 27.0091 18.8102 27.0091 18.5605V15.1366C27.0091 14.886 26.8065 14.6841 26.5566 14.6841L26.5564 14.6838ZM8.48065 4.17415H9.43478C9.55521 4.17415 9.67015 4.12612 9.75521 4.04201L10.7638 3.03343H12.8596C12.98 3.03343 13.095 2.98541 13.18 2.90129L14.0001 2.07929L14.8211 2.90032C14.9062 2.98538 15.0211 3.03246 15.1415 3.03246H18.1135V3.72135C18.1135 3.87261 18.1895 4.01382 18.3155 4.09793L19.7756 5.06925C19.6516 5.08837 19.5286 5.11178 19.4036 5.12994C19.2072 5.15886 19.0098 5.18419 18.8125 5.20952C18.4368 5.2585 18.0602 5.30103 17.6827 5.33807C17.5006 5.35623 17.3178 5.37439 17.136 5.38873C16.7331 5.42218 16.3303 5.44751 15.9265 5.4683C15.7671 5.47642 15.607 5.48741 15.4476 5.49362C14.9678 5.51274 14.488 5.51991 14.0091 5.52086C13.9277 5.52086 13.8462 5.52445 13.7657 5.52349C13.1982 5.52086 12.6314 5.50438 12.0665 5.47546C11.9669 5.46997 11.8682 5.46089 11.7695 5.45468C11.3186 5.42839 10.8687 5.39589 10.4216 5.35241C10.2388 5.3352 10.0577 5.3125 9.8766 5.29267C9.51173 5.25205 9.14684 5.20856 8.78581 5.15695C8.58653 5.12899 8.38845 5.09721 8.19108 5.06543C8.01903 5.03819 7.84986 5.00569 7.67878 4.97583L8.48065 4.17415ZM5.20994 5.41548C5.68258 5.52874 6.16695 5.63005 6.65123 5.7187C7.22877 5.83458 7.81445 5.9359 8.40486 6.02383C8.86746 6.09265 9.33648 6.14593 9.80535 6.19754C9.93199 6.21116 10.057 6.231 10.1838 6.24366C10.7117 6.29623 11.244 6.33326 11.7781 6.36409C11.8478 6.36768 11.9166 6.3758 11.9862 6.37938C12.5374 6.4083 13.0925 6.42096 13.6493 6.42646C13.7018 6.42646 13.7535 6.43004 13.8058 6.43004C13.871 6.43004 13.9353 6.43458 13.9996 6.43458C15.7314 6.43458 17.4669 6.31319 19.1823 6.07879C19.2122 6.07521 19.2421 6.07234 19.2719 6.06804C19.8206 5.99205 20.3656 5.90149 20.9087 5.80185C20.9623 5.79181 21.0165 5.7856 21.0698 5.77556C21.7434 5.64701 22.2927 5.53112 22.7897 5.41428L24.8492 14.6834L3.15028 14.6836L5.20994 5.41548ZM26.1038 18.1071H1.89635V15.5886H26.1032L26.1038 18.1071Z" />
    <path
        d="M17.5938 7.35928C16.9429 7.35928 16.3609 7.73132 16.0765 8.29714H11.9222C11.6379 7.73132 11.0558 7.35928 10.4049 7.35928C9.46604 7.35928 8.70215 8.12342 8.70215 9.06202C8.70215 9.39797 8.80346 9.72296 8.98817 9.99988C8.80346 10.2768 8.70215 10.6018 8.70215 10.9377C8.70215 11.8766 9.46629 12.6405 10.4049 12.6405C11.0558 12.6405 11.6378 12.2684 11.9222 11.7026H16.0765C16.3609 12.2684 16.9429 12.6405 17.5938 12.6405C18.5327 12.6405 19.2966 11.8763 19.2966 10.9377C19.2966 10.6018 19.1953 10.2768 19.0106 9.99988C19.1953 9.72294 19.2966 9.39797 19.2966 9.06202C19.2968 8.12318 18.5327 7.35928 17.5938 7.35928ZM18.1155 10.3413C18.2937 10.4971 18.3917 10.7079 18.3917 10.938C18.3917 11.3769 18.034 11.7356 17.5941 11.7356C17.2338 11.7356 16.9179 11.4902 16.8263 11.1373C16.7747 10.9373 16.5946 10.7977 16.3881 10.7977H11.6118C11.4054 10.7977 11.2252 10.937 11.1736 11.1373C11.0821 11.4904 10.7662 11.7356 10.4058 11.7356C9.96594 11.7356 9.60824 11.3772 9.60824 10.938C9.60824 10.7088 9.70598 10.4971 9.88518 10.3413C9.98291 10.2544 10.04 10.1313 10.04 10.0001C10.04 9.86894 9.98291 9.74564 9.88518 9.6589C9.70692 9.50311 9.60824 9.2914 9.60824 9.06225C9.60824 8.62331 9.96595 8.26466 10.4058 8.26466C10.7662 8.26466 11.0821 8.51005 11.1736 8.86298C11.2252 9.06297 11.4054 9.20252 11.6118 9.20252H16.3881C16.5946 9.20252 16.7747 9.06322 16.8263 8.86298C16.9179 8.50982 17.2337 8.26466 17.5941 8.26466C18.034 8.26466 18.3917 8.62308 18.3917 9.06225C18.3917 9.29212 18.294 9.50311 18.1155 9.6589C18.0177 9.74588 17.9606 9.86894 17.9606 10.0001C17.9606 10.1313 18.0175 10.2544 18.1155 10.3413Z" />
</svg>