<svg viewBox="0 0 27 27" fill="none" stroke="#0da487" xmlns="http://www.w3.org/2000/svg">
    <path
        d="M21.1682 8.60176L18.1869 7.36733C16.548 6.6876 14.879 7.547 14.479 9.27556L11.1436 23.6796C10.9433 24.5444 11.4501 25.528 12.2703 25.868C13.09 26.2075 14.145 25.8695 14.6141 25.1174L22.4412 12.5734C23.3799 11.0678 22.8077 9.28053 21.1683 8.60145L21.1682 8.60176Z"
        stroke-miterlimit="10" stroke-linecap="round" stroke-linejoin="round" />
    <path d="M19.6782 1C20.6423 3.32892 20.5709 5.82728 19.6777 7.98482C20.5706 5.82706 20.6423 3.32848 19.6782 1Z"
        stroke-miterlimit="10" stroke-linecap="round" stroke-linejoin="round" />
    <path
        d="M26.0005 5.36505C23.5304 4.34146 20.7008 5.51481 19.6776 7.98444C20.3592 6.33756 19.5781 4.45 17.9313 3.76811C17.1085 3.4276 16.2254 3.45182 15.4624 3.76811C16.2251 3.45182 17.1087 3.4276 17.9313 3.76811C19.5781 4.4499 20.3592 6.3375 19.6776 7.98444C20.7009 5.5148 23.5308 4.34156 26.0005 5.36505V5.36505Z"
        stroke-miterlimit="10" stroke-linecap="round" stroke-linejoin="round" />
    <path d="M14.0999 10.9117L17.8259 12.455L14.0999 10.9117Z" stroke-miterlimit="10" stroke-linecap="round"
        stroke-linejoin="round" />
    <path d="M19.8207 16.7738L16.5916 15.4365L19.8207 16.7738Z" stroke-miterlimit="10" stroke-linecap="round"
        stroke-linejoin="round" />
    <path d="M12.6248 17.2847L15.3571 18.4165L12.6248 17.2847Z" stroke-miterlimit="10" stroke-linecap="round"
        stroke-linejoin="round" />
    <path d="M16.3571 22.3223L14.1228 21.3966L16.3571 22.3223Z" stroke-miterlimit="10" stroke-linecap="round"
        stroke-linejoin="round" />
    <path
        d="M9.86085 5.60633L7.53762 7.45064L5.16076 4.90625L5.27882 8.38694L2.33154 8.72514C3.24353 9.10327 3.96679 9.74175 4.45783 10.5171C5.50513 10.2019 6.5929 10.2784 7.54945 10.6736L7.5492 10.6723C7.94539 9.71467 8.66147 8.8919 9.62549 8.37558C9.41231 7.42931 9.50614 6.46398 9.86082 5.6064L9.86085 5.60633Z"
        stroke-miterlimit="10" stroke-linecap="round" stroke-linejoin="round" />
    <path
        d="M14.479 9.27546C14.5285 9.0592 14.5991 8.85633 14.686 8.66867C13.367 7.76262 11.6322 7.5193 10.0434 8.1771C8.86746 8.66401 8.0006 9.58116 7.54925 10.6723L7.5495 10.6736C6.45917 10.223 5.19662 10.1854 4.02069 10.673C1.52501 11.7059 0.339992 14.5662 1.37345 17.0613C3.0412 21.087 7.56107 23.0552 11.6211 21.6145L14.479 9.27546Z"
        stroke-miterlimit="10" stroke-linecap="round" stroke-linejoin="round" />
</svg>